# xmcd
#
# Track frame offsets: 
#        150
#        18890
#        35712
#        54220
#        74280
#        95665
#        114825
#        130327
#        152482
#        173160
#        191477
#        211870
#
# Disc length: 3049 seconds
#
# Revision: 0
# Processed by: cddbd v1.5.2PL0 Copyright (c) Steve Scherf et al.
# Submitted via: ExactAudioCopyFreeDBPlugin 1.0
#
DISCID=970be70c
DTITLE=คาราบาว - มัน
DYEAR=1900
DGENRE=Country
TTITLE0=เมดอินไทยแลนด์
TTITLE1=รักทรหด
TTITLE2=หำเทียม
TTITLE3=ผ้าขี้ริ้ว
TTITLE4=วณิพก
TTITLE5=ตาตี๋
TTITLE6=ราชาเงินผ่อน
TTITLE7=คนจนผู้ยิ่งใหญ่
TTITLE8=คนหนังเหนียว
TTITLE9=ซาอุดรฯ
TTITLE10=ผู้ทน
TTITLE11=กระถางดอกไม้ให้คุณ
EXTD=
EXTT0=
EXTT1=
EXTT2=
EXTT3=
EXTT4=
EXTT5=
EXTT6=
EXTT7=
EXTT8=
EXTT9=
EXTT10=
EXTT11=
PLAYORDER=
